
<svg xmlns="http://www.w3.org/2000/svg" version="1.1" xmlns:xlink="http://www.w3.org/1999/xlink" preserveAspectRatio="none" x="0px" y="0px" width="1920px" height="1080px" viewBox="0 0 1920 1080">
<defs>
<g id="Symbol_7_3_Layer1_0_FILL">
<path fill="#F0DECC" stroke="none" d="
M 725.25 519.1
Q 707.8 519.95 695.3 532.45 681.95 545.8 681.95 564.75 681.95 583.65 695.3 597 708.25 610 726.4 610.45
L 728.75 610.45
Q 746.95 610 759.85 597 771.15 585.8 772.95 570.7 773.1 570.7 773.2 570.7
L 773.2 568.1
Q 773.3 566.45 773.3 564.75 773.3 563.05 773.2 561.4 772.1 544.65 759.85 532.45 747.35 519.95 730 519.1
L 725.25 519.1
M 1001.95 424.25
Q 984.5 425.1 972 437.6 958.65 450.95 958.65 469.9 958.65 488.8 972 502.15 984.95 515.15 1003.1 515.6
L 1005.45 515.6
Q 1023.65 515.15 1036.55 502.15 1047.85 490.95 1049.65 475.85 1049.8 475.85 1049.9 475.85
L 1049.9 473.25
Q 1050 471.6 1050 469.9 1050 468.2 1049.9 466.55 1048.8 449.8 1036.55 437.6 1024.05 425.1 1006.7 424.25
L 1001.95 424.25
M 303.8 554.6
Q 291.2 567.2 291.2 585 291.2 602.8 303.8 615.4 313.75 625.35 327 627.45
L 341.4 627.45
Q 354.65 625.35 364.6 615.4 374.55 605.45 376.65 592.2 377.2 588.7 377.2 585 377.2 582.1 376.9 579.35 376.75 578.55 376.65 577.8 374.55 564.55 364.6 554.6 352.4 542.4 335.3 542
L 333.1 542
Q 316 542.4 303.8 554.6
M 370.05 194.1
L 370.05 107.85
Q 231.75 107.85 134 205.65 49.95 289.65 38.15 403.6 36.2 422.25 36.2 441.7 36.2 443.1 36.2 444.45 36.35 467.3 39.25 489.05 53.4 597.2 134 677.8 231.75 775.55 370.05 775.55
L 370.05 688.95
Q 278.2 676.3 208.8 619.05 140.75 562.95 124.7 489.05
L 370.05 489.05 370.05 403.6 122.85 403.6
Q 136.4 323.75 208.8 264.05 278.2 206.75 370.05 194.1
M 335.3 258.2
L 333.1 258.2
Q 316 258.6 303.8 270.8 291.2 283.4 291.2 301.2 291.2 319 303.8 331.6 313.75 341.55 327 343.65
L 341.4 343.65
Q 354.65 341.55 364.6 331.6 374.55 321.65 376.65 308.4 377.2 304.9 377.2 301.2 377.2 298.3 376.9 295.55 376.75 294.75 376.65 294 374.55 280.75 364.6 270.8 352.4 258.6 335.3 258.2
M 1789.5 382.35
L 1782.8 382.35
Q 1758.35 383.5 1740.75 401.05 1722 419.85 1722 446.4 1722 472.95 1740.75 491.7 1758.95 509.95 1784.45 510.55
L 1787.75 510.55
Q 1813.25 509.95 1831.4 491.7 1847.25 475.95 1849.8 454.75 1849.95 454.75 1850.1 454.75
L 1850.1 451.15
Q 1850.25 448.8 1850.25 446.4 1850.25 444 1850.1 441.75 1848.6 418.2 1831.4 401.05 1813.85 383.5 1789.5 382.35
M 2565.15 443.35
Q 2565 441.35 2564.7 439.45
L 2552.7 416.2 2551.85 415.35
Q 2540.4 404.4 2524.7 403.7
L 2520.25 403.7
Q 2503.95 404.45 2492.2 416.15 2480.05 428.35 2479.7 445.45
L 2479.7 446.45 2480.7 456.1
Q 2480.85 456.75 2481.05 457.4 2481.2 458.05 2481.4 458.7
L 2492.2 476.6 2493 477.35
Q 2493.3 477.7 2493.7 478.05
L 2493.75 478.1
Q 2504.6 488 2519.1 489.05
L 2519.25 489.1
Q 2520.3 489.15 2521.35 489.2
L 2523.6 489.2 2523.75 489.15
Q 2539.5 488.7 2551 478.2
L 2551.15 478.15
Q 2551.95 477.4 2552.7 476.65 2563.25 466.15 2564.95 452 2565.05 450.8 2565.15 449.6 2565.25 448.05 2565.25 446.45 2565.25 444.85 2565.15 443.35
M 2183.4 690.05
L 2178.95 690.05
Q 2162.65 690.8 2150.9 702.5 2138.4 715.05 2138.4 732.75 2138.4 750.45 2150.9 762.95 2163.05 775.1 2180.05 775.5
L 2182.25 775.5
Q 2199.25 775.1 2211.35 762.95 2221.9 752.45 2223.6 738.3 2223.7 738.3 2223.8 738.3
L 2223.8 735.9
Q 2223.9 734.35 2223.9 732.75 2223.9 731.15 2223.8 729.65 2222.8 713.95 2211.35 702.5 2199.65 690.8 2183.4 690.05
M 2182.7 511.5
L 2176 511.5
Q 2151.55 512.65 2133.95 530.2 2115.2 549 2115.2 575.55 2115.2 602.1 2133.95 620.85 2144.8337890625 631.763671875 2158.3 636.35 2167.39921875 639.4587890625 2177.65 639.7
L 2180.95 639.7
Q 2183.0810546875 639.6498046875 2185.15 639.45 2207.966796875 637.5748046875 2224.6 620.85 2240.45 605.1 2243 583.9 2243.15 583.9 2243.3 583.9
L 2243.3 580.3
Q 2243.45 577.95 2243.45 575.55 2243.45 573.15 2243.3 570.9 2241.8 547.35 2224.6 530.2 2207.05 512.65 2182.7 511.5
M 2176 249.2
Q 2166.8017578125 249.6326171875 2158.55 252.35 2144.9287109375 256.95234375 2133.95 267.9 2115.2 286.7 2115.2 313.25 2115.2 339.8 2133.95 358.55 2152.15 376.8 2177.65 377.4
L 2180.95 377.4
Q 2206.45 376.8 2224.6 358.55 2240.45 342.8 2243 321.6 2243.15 321.6 2243.3 321.6
L 2243.3 318
Q 2243.45 315.65 2243.45 313.25 2243.45 310.85 2243.3 308.6 2241.8 285.05 2224.6 267.9 2207.842578125 251.142578125 2184.85 249.3 2183.7998046875 249.251953125 2182.7 249.2
L 2176 249.2
M 2180.25 107.8
Q 2163.15 108.2 2150.95 120.4 2138.35 133 2138.35 150.8 2138.35 168.6 2150.95 181.2 2160.9 191.15 2174.15 193.25
L 2188.55 193.25
Q 2201.8 191.15 2211.75 181.2 2221.7 171.25 2223.8 158 2224.35 154.5 2224.35 150.8 2224.35 147.9 2224.05 145.15 2223.9 144.35 2223.8 143.6 2221.7 130.35 2211.75 120.4 2199.55 108.2 2182.45 107.8
L 2180.25 107.8 Z"/>
</g>

<g id="Symbol_8_2_Layer0_0_FILL">
<path fill="#F0DECC" stroke="none" d="
M 360.8 91.7
Q 349.2 73.6 333 57.4 322.6673828125 47.0673828125 311.55 38.6 262.881640625 1.477734375 199.35 0.15 197.3125 0.1625 195.25 0.15 195.0248046875 0.15 194.8 0.15
L 40.05 0.15 40.05 0 1.6 0 1.6 58.4 186.5 58.4
Q 303.3451171875 72.459765625 327.6 155.2
L 0 155.2 0 390.5 69.35 390.5 69.35 232.15 387.85 232.15
Q 390.3 204.13203125 390.3 195.6 390.3 195.425390625 390.3 195.25 390.2833984375 184.3845703125 389.2 173.95 389.1923828125 173.6248046875 389.15 173.3 384.51875 128.5244140625 360.8 91.7 Z"/>
</g>

<g id="Symbol_8_4_Layer0_0_FILL">
<path fill="#F0DECC" stroke="none" d="
M 390.5 0
L 324.1 0 324.1 182.75
Q 324.051171875 185.22421875 323.95 187.65 323.76171875 191.484765625 323.4 195.25 323.0419921875 199.4732421875 322.45 203.6 318.5 232.15 304.7 256.15 297 269.4 286.3 281.35 252.45 319.2 206.05 323.05 200.75 323.45 195.35 323.45
L 195.25 323.45
Q 189.7755859375 323.4482421875 184.45 323.05 160.25 321 139.45 309.8 120.4 299.4 104.2 281.35 74.25 247.95 68.1 203.6 67.5212890625 199.47734375 67.15 195.25 67.0107421875 193.6326171875 66.9 192 66.8 189.9 66.65 187.9 66.643359375 187.770703125 66.6 187.65 66.51953125 185.2359375 66.45 182.75
L 66.45 0 0 0 0 212.35
Q 5.330078125 282.580078125 56.6 333.85 81.2 358.4 110.15 372.5 141.695703125 387.76015625 178.45 390.5
L 211.1 390.5
Q 281.608984375 385.241015625 333 333.85 349.2 317.65 360.8 299.6 390.3 253.7 390.3 195.6 390.3 195.425390625 390.3 195.25
L 390.5 195.25 390.5 0 Z"/>
</g>

<g id="Symbol_8_6_Layer0_0_FILL">
<path fill="#F0DECC" stroke="none" d="
M 390.5 0
L 325.4 0 325.4 160.95
Q 324.3830078125 159.4412109375 323.35 157.95 307.85 135.4 288.85 114.4 245.7515625 66.885546875 195.25 39.1 194.773046875 38.8626953125 194.3 38.6 162.2611328125 21.120703125 127.25 11.55 97.2640625 3.3853515625 65.1 0.95 55.1787109375 0.2216796875 45.05 0
L 0 0 0 390.5 65.1 390.5 65.1 49.35
Q 65.61171875 48.880078125 66.1 48.4 77.22421875 49.5771484375 88 51.7 102.6740234375 54.587109375 116.75 59.25 158.7013671875 73.2169921875 195.25 103.1 218.4 121.95 239.4 147.25 251.2 161.6 261.35 176.7 267.4681640625 185.816015625 272.95 195.25 276.45859375 201.2361328125 279.7 207.35 300.6 246.65 311.3 291.1 312.1203125 294.5064453125 312.85 297.95 317.5892578125 319.22890625 320 341.7 320.2005859375 343.608984375 320.35 345.5 322.4041015625 366.555078125 322.45 388.55 322.45 388.9 322.45 389.1 322.45 389.2556640625 322.45 390.5
L 390.5 390.5 390.5 0
M 352.05 196.1
Q 351.8029296875 195.685546875 351.55 195.25
L 352.05 195.25 352.05 196.1 Z"/>
</g>

<g id="Symbol_8_8_Layer0_0_FILL">
<path fill="#F0DECC" stroke="none" d="
M 360.8 91.7
Q 349.2 73.6 333 57.4 275.908984375 0.308984375 195.25 0.15 195.0248046875 0.15 194.8 0.15 148.6 0.15 110.15 18.8 81.2 32.8 56.6 57.4 14.4888671875 99.5111328125 3.35 154.45 2.3669921875 159.3001953125 1.6 164.25 0.5669921875 171.3357421875 0 178.6
L 0 212.35
Q 0.553515625 219.66484375 1.6 226.75 2.4578125 232.54375 3.65 238.2 15.0068359375 292.2568359375 56.6 333.85 81.2 358.4 110.15 372.5 141.695703125 387.76015625 178.45 390.5
L 211.1 390.5
Q 281.608984375 385.241015625 333 333.85 349.2 317.65 360.8 299.6 379.0330078125 271.2306640625 386 238.2
L 329.9 238.2
Q 324.641015625 255.0447265625 315 270.05 306.6 283.05 294.9 294.75 257.75 331.9 206.9 335.7 201.15 336.1 195.25 336.1 195.2 336.1 195.15 336.1 189.1 336.1 183.3 335.7 156.75 333.7 134 322.7 113.1 312.5 95.35 294.75 70.25234375 269.65234375 60.4 238.2 58.66875 232.576953125 57.4 226.75 57.21484375 225.951953125 57.05 225.15 56.85 224.4 56.75 223.65 55.1 215.55 54.5 207.1 54.35 205.05 54.2 203.05 54 199.2 54 195.25 54 195.1 54 194.95 54 188.75 54.5 182.75 55.1 174.8 56.5 167.25 56.65 166.5 56.75 165.8 56.90546875 165.023046875 57.05 164.25 58.1283203125 159.2765625 59.5 154.45 69.16640625 121.38359375 95.35 95.2 113.1 77.45 134 67.3 161.8 53.85 195.15 53.85 195.2 53.85 195.25 53.85 195.35 53.85 195.45 53.85 253.65 53.95 294.9 95.2 306.6 106.95 315 119.95 325.3837890625 136.1580078125 330.65 154.45
L 386.3 154.45
Q 379.429296875 120.6228515625 360.8 91.7 Z"/>
</g>

<g id="Symbol_8_11_Layer0_0_FILL">
<path fill="#F0DECC" stroke="none" d="
M 390.5 390.5
L 390.5 0 313.85 0
Q 323.25 22.6052734375 323.25 49.1 323.25 101.85 285.95 139.15 250.25 174.9 200.25 176.3 198.15 176.4 195.9 176.4 195.6 176.4 195.2 176.4 195.1 176.4 194.95 176.4
L 194.85 176.4
Q 193.1 176.4 191.5 176.3 141.55 174.9 105.8 139.15 68.55 101.85 68.55 49.1 68.55 22.6052734375 77.95 0
L 0 0 0 390.5 83.65 390.5
Q 81.0244140625 384.1849609375 79.15 377.55 75.4458984375 364.4431640625 74.75 350.05 74.6 346.796484375 74.6 343.45 74.6 343.072265625 74.6 342.7
L 74.6 341.1
Q 74.6 340.7119140625 74.6 340.3 74.6 317.2 81.4 297.1 90.15 271.25 110.05 250.35 144.05 214.55 191.7 213.1 193.35 213 195 213 195.15 213 195.25 213 195.55 213 195.8 213 196.3 213 196.8 213 198.45 213 200.05 213.1 247.55 214.55 283.45 251.3 317.6912109375 286.353125 317.15 340.3 317.2169921875 344.2767578125 317.05 348.3
L 317 348.35
Q 316.51484375 362.725 313.05 375.9 311.039453125 383.4021484375 308.05 390.5
L 390.5 390.5 Z"/>
</g>

<path id="Symbol_7_3_Layer1_0_1_STROKES" stroke="#F0DECC" stroke-width="45" stroke-linejoin="round" stroke-linecap="butt" fill="none" d="
M 2275.9 153.4
Q 2356.75 173.95 2420.9 229.2 2488.55 287.4 2511.45 361.6
M 2508.45 530.9
Q 2484.3 599.55 2420.9 654.1 2356.75 709.35 2275.95 729.95
M 2094.5 143.95
L 411.15 141.95
M 2094.5 741.5
L 411.15 739.5"/>

<path id="Symbol_7_3_Layer1_0_2_STROKES" stroke="#F0DECC" stroke-width="20" stroke-linejoin="round" stroke-linecap="butt" fill="none" d="
M 2382.25 293.55
Q 2440.75 357.5287109375 2440.75 445.6 2440.75 533.6244140625 2382.25 597.55
M 1320 509.05
L 1418.1 509.05
M 1320 460.35
L 1393.05 460.35
M 1320 411.65
L 1378.2 411.65
M 1323.85 557.75
L 1442.15 557.75
M 1323.85 606.45
L 1472.8 606.45
M 1897.6 445.3
L 1959.8 445.3
M 939.8 338.65
L 1073.7 338.65
M 954.85 387.35
L 1058.65 387.35
M 919.75 289.95
L 1093.65 289.95
M 439.9 377.4
L 576.7 377.4
M 439.9 336
L 517.4 336
M 192.55 336
L 270.05 336
M 192.55 554.45
L 270.05 554.45
M 192.55 513.05
L 398.45 513.05
M 192.55 377.4
L 398.45 377.4
M 530.2 513.05
L 663.4 513.05
M 530.2 561.75
L 663.4 561.75
M 530.2 610.45
L 663.4 610.45
M 2040.55 680.8
L 475.75 680.8
M 2040.55 207.45
L 475.75 205.45"/>
</defs>

<g transform="matrix( 0.699798583984375, 0, 0, 0.699798583984375, 54.3,231.95) ">
<g transform="matrix( 1, 0, 0, 1, 0,0) ">
<use xlink:href="#Symbol_7_3_Layer1_0_FILL"/>

<use xlink:href="#Symbol_7_3_Layer1_0_1_STROKES"/>

<use xlink:href="#Symbol_7_3_Layer1_0_2_STROKES"/>
</g>

<g transform="matrix( 0.899993896484375, 0, 0, 1, 438.85,249.2) ">
<g transform="matrix( 1, 0, 0, 1, 0,0) ">
<use xlink:href="#Symbol_8_2_Layer0_0_FILL"/>
</g>
</g>

<g transform="matrix( 0.899993896484375, 0, 0, 1, 829.35,249.2) ">
<g transform="matrix( 1, 0, 0, 1, 0,0) ">
<use xlink:href="#Symbol_8_4_Layer0_0_FILL"/>
</g>
</g>

<g transform="matrix( 0.899993896484375, 0, 0, 1, 1219.85,249.2) ">
<g transform="matrix( 1, 0, 0, 1, 0,0) ">
<use xlink:href="#Symbol_8_6_Layer0_0_FILL"/>
</g>
</g>

<g transform="matrix( 0.899993896484375, 0, 0, 1, 1610.35,249.2) ">
<g transform="matrix( 1, 0, 0, 1, 0,0) ">
<use xlink:href="#Symbol_8_8_Layer0_0_FILL"/>
</g>
</g>

<g transform="matrix( 0.899993896484375, 0, 0, 1, 2000.85,249.2) ">
<g transform="matrix( 1, 0, 0, 1, 0,0) ">
<use xlink:href="#Symbol_8_11_Layer0_0_FILL"/>
</g>
</g>
</g>
</svg>
