
<svg xmlns="http://www.w3.org/2000/svg" version="1.1" xmlns:xlink="http://www.w3.org/1999/xlink" preserveAspectRatio="none" x="0px" y="0px" width="1920px" height="1080px" viewBox="0 0 1920 1080">
<defs>
<g id="Symbol_5_4_Layer0_0_FILL">
<path fill="#F0DECC" stroke="none" d="
M 659.4 305
Q 658.4 305 657.45 305.05 627.8 306.05 599.45 310 448.25 331 334.6 434.3 211.25 546.45 194.65 698.7 194.35 700.9 194.15 703.1 192 724.8 192 747.3 192 769.8 194.15 791.5 194.35 793.75 194.65 795.95 211.3 948.2 334.6 1060.3 448.25 1163.6 599.45 1184.6 627.8 1188.55 657.45 1189.6 658.4 1189.65 659.4 1189.65
L 659.4 1078.85
Q 638.9 1077.9 619.3 1075.2 505.9 1059.45 420.65 981.95 333.15 902.45 317.3 795.95
L 659.4 795.95 659.4 698.7 317.25 698.7
Q 333.05 592.15 420.65 512.45 505.9 435 619.3 419.25 638.9 416.55 659.4 415.7
L 659.4 305
M 313.8 746.9
Q 313.7548828125 747.024609375 313.7 747.15 313.7 747 313.7 746.9
L 313.8 746.9
M 760.7 305.05
Q 759.75 305 758.75 305
L 758.75 415.7
Q 790.45 417 820.15 422.8 824.25 423.65 828.25 424.5 837.8 426.6 847.15 429.15 930.9 451.95 997.45 512.45 1085.05 592.15 1100.9 698.7
L 758.75 698.7 758.75 1189.65
Q 759.75 1189.65 760.7 1189.6 805.45 1188 847.15 1179.9
L 847.15 795.95 1223.6 795.95
Q 1223.8 793.75 1224 791.5 1226.15 769.8 1226.15 747.3 1226.15 724.8 1224 703.1 1223.8 700.9 1223.6 698.7 1206.9 546.45 1083.55 434.3 984.9 344.6 857.95 317 852.6 315.85 847.15 314.75 805.45 306.6 760.7 305.05 Z"/>
</g>
</defs>

<g transform="matrix( 1, 0, 0, 1, 256.9,-207.3) ">
<g transform="matrix( 1, 0, 0, 1, 0,0) ">
<use xlink:href="#Symbol_5_4_Layer0_0_FILL"/>
</g>
</g>
</svg>
